<?xml version="1.0" encoding="utf-8"?>
<!-- Generator: Adobe Illustrator 24.1.2, SVG Export Plug-In . SVG Version: 6.00 Build 0)  -->
<svg version="1.1" id="Layer_1" xmlns="http://www.w3.org/2000/svg" xmlns:xlink="http://www.w3.org/1999/xlink" x="0px" y="0px"
	 viewBox="0 0 38.3 57.2" style="enable-background:new 0 0 38.3 57.2;" xml:space="preserve">
<style type="text/css">
	.st0{fill:#F36B21;}
	.st1{fill:#BCBCBC;}
	.st2{fill:#0B6BB1;}
	.st3{fill:#0A0A0D;}
	.st4{fill:#0A6CB1;}
	.st5{fill:#F36B24;}
	.st6{fill:#848484;}
	.st7{fill:#FDB714;}
	.st8{fill:#414042;}
	.st9{fill:none;stroke:#414042;stroke-width:3.888;stroke-miterlimit:10;}
	.st10{fill:#606161;}
	.st11{fill:#383838;}
	.st12{fill:none;stroke:#000000;stroke-miterlimit:10;}
</style>
<g>
	<path class="st7" d="M1.6,31.5c0-2.4,0.1-4.9,0.1-7.3c0-2.4,1-3.7,3.7-3.7c9.2,0.1,18.4,0.1,27.6,0c2.5,0,3.8,1,3.7,3.6
		c-0.1,2.4,0,4.9,0,7.3c-1.2,5.7-0.5,11.5-0.7,17.3c0,1.1,0.1,2.2-0.1,3.3c-0.3,2.8-2.2,4-4.4,2.4c-2.4-1.8-4.9-1.8-7.5-1.8
		c-3.2,0-6.5,0-9.7,0c-2.6,0-5.1,0.1-7.5,1.8c-2.3,1.7-4.2,0.4-4.3-2.7c-0.2-4.7-0.1-9.3-0.1-14C2.5,35.6,2.3,33.5,1.6,31.5z"/>
	<path class="st3" d="M1.5,31.5c2.1,0.2,1.6,1.8,1.6,3c0,5.6,0,11.2,0,16.8c0,1.1-0.5,2.5,0.8,3c1.2,0.4,2.6,0.2,3.4-1.3
		c0.6-1.1,1.7-1.2,2.9-1.2c5.8,0,11.6,0,17.4-0.1c1.5,0,2.8,0.3,3.7,1.7c0.6,1,1.6,1.2,2.7,0.9c1.3-0.4,1.2-1.5,1.2-2.5
		c0-5.6,0-11.2,0-16.8c0-1.3-0.4-3,1.4-3.6c1.5,0.1,1.3,1.2,1.3,2.2c0,6.2,0,12.4,0,18.6c0,3.2-1.4,4.7-4.7,4.7
		c-9.5,0.1-18.9,0-28.4,0c-2.8,0-4.4-1.5-4.5-4.3c-0.1-6.5,0-13,0-19.5C0.4,32.3,0.4,31.5,1.5,31.5z"/>
	<g id="steering_x5F_wheel_1_">
		<path class="st8" d="M19.2,0.4c-8.6,0-15.6,7-15.6,15.6s7,15.6,15.6,15.6s15.6-7,15.6-15.6S27.8,0.4,19.2,0.4z M19.2,4.3
			c5.1,0,9.3,3.3,11,7.8H8.2C9.8,7.6,14.1,4.3,19.2,4.3z M19.2,17.9c-1.1,0-1.9-0.9-1.9-1.9s0.9-1.9,1.9-1.9c1.1,0,1.9,0.9,1.9,1.9
			S20.2,17.9,19.2,17.9z M7.5,16c5.3,0,9.6,5.1,9.7,11.5C11.7,26.5,7.5,21.7,7.5,16z M21.1,27.4c0.1-6.3,4.4-11.5,9.7-11.5
			C30.8,21.7,26.6,26.5,21.1,27.4z"/>
	</g>
</g>
</svg>
